<?xml version="1.0" encoding="UTF-8"?>
<!DOCTYPE svg PUBLIC "-//W3C//DTD SVG 1.1//EN" "http://www.w3.org/Graphics/SVG/1.1/DTD/svg11.dtd">
<svg xmlns="http://www.w3.org/2000/svg" version="1.1" width="512px" height="512px" style="shape-rendering:geometricPrecision; text-rendering:geometricPrecision; image-rendering:optimizeQuality; fill-rule:evenodd; clip-rule:evenodd" xmlns:xlink="http://www.w3.org/1999/xlink">
<g><path style="opacity:0.976" fill="#020101" d="M 393.5,-0.5 C 416.5,-0.5 439.5,-0.5 462.5,-0.5C 465.2,1.04602 467.033,3.37935 468,6.5C 468.5,47.832 468.667,89.1653 468.5,130.5C 479.505,130.333 490.505,130.5 501.5,131C 507.109,134.277 508.942,139.11 507,145.5C 484.695,168.805 462.028,191.805 439,214.5C 428.948,292.039 387.115,343.705 313.5,369.5C 317.413,378.372 317.413,387.205 313.5,396C 313.833,396.167 314.167,396.333 314.5,396.5C 334.999,388.168 355.666,380.335 376.5,373C 403.16,371.492 418.16,383.992 421.5,410.5C 420.342,427.476 412.009,439.31 396.5,446C 373.42,455.138 350.42,464.471 327.5,474C 310.99,480.516 293.99,482.182 276.5,479C 250.122,471.822 223.789,464.489 197.5,457C 193.221,455.756 188.888,455.423 184.5,456C 128.895,474.035 73.5621,492.535 18.5,511.5C 15.5,511.5 12.5,511.5 9.5,511.5C 7.19301,510.023 5.35968,508.023 4,505.5C 3.01278,467.749 3.34612,430.082 5,392.5C 6.95217,390.106 9.45217,388.606 12.5,388C 46.5881,378.978 80.5881,369.645 114.5,360C 119.666,357.252 124.666,354.252 129.5,351C 136.206,344.626 143.206,338.626 150.5,333C 123.301,308.939 105.301,279.273 96.5,244C 96.8647,238.808 99.5314,235.641 104.5,234.5C 109.347,233.84 113.181,235.507 116,239.5C 125.258,273.192 143.425,301.025 170.5,323C 177.767,320.951 185.267,319.784 193,319.5C 200.55,319.864 208.05,320.697 215.5,322C 244.012,330.559 272.012,340.392 299.5,351.5C 358.69,335.143 396.857,297.477 414,238.5C 415.879,229.901 416.879,221.234 417,212.5C 394.305,190.139 371.972,167.472 350,144.5C 348.176,138.011 350.343,133.511 356.5,131C 367.161,130.5 377.828,130.333 388.5,130.5C 388.929,123.053 388.429,115.719 387,108.5C 350.456,63.9697 303.289,44.1364 245.5,49C 179.299,60.533 136.133,98.3664 116,162.5C 112.96,165.966 109.126,167.3 104.5,166.5C 101.325,166.16 99.1585,164.493 98,161.5C 96.9648,154.86 97.9648,148.527 101,142.5C 131.119,69.4199 185.786,31.0866 265,27.5C 312.8,28.5328 353.8,45.5328 388,78.5C 388.333,54.1667 388.667,29.8333 389,5.5C 390.332,3.34004 391.832,1.34004 393.5,-0.5 Z"/></g>
<g><path style="opacity:1" fill="#fd7d94" d="M 408.5,19.5 C 421.5,19.5 434.5,19.5 447.5,19.5C 447.333,60.5014 447.5,101.501 448,142.5C 449.031,145.539 450.865,148.039 453.5,150C 459.859,150.169 466.193,150.669 472.5,151.5C 458.167,166.5 443.5,181.167 428.5,195.5C 413.347,180.847 398.347,166.014 383.5,151C 390.579,150.886 397.579,150.219 404.5,149C 406.487,147.681 407.654,145.848 408,143.5C 408.5,102.168 408.667,60.8347 408.5,19.5 Z"/></g>
<g><path style="opacity:1" fill="#fdc034" d="M 104.5,234.5 C 102.478,227.007 101.478,219.34 101.5,211.5C 112.582,207.827 114.249,201.661 106.5,193C 104.975,191.991 103.308,191.491 101.5,191.5C 101.762,183.069 102.762,174.736 104.5,166.5C 109.126,167.3 112.96,165.966 116,162.5C 136.133,98.3664 179.299,60.533 245.5,49C 303.289,44.1364 350.456,63.9697 387,108.5C 388.429,115.719 388.929,123.053 388.5,130.5C 377.828,130.333 367.161,130.5 356.5,131C 350.343,133.511 348.176,138.011 350,144.5C 371.972,167.472 394.305,190.139 417,212.5C 416.879,221.234 415.879,229.901 414,238.5C 396.857,297.477 358.69,335.143 299.5,351.5C 272.012,340.392 244.012,330.559 215.5,322C 208.05,320.697 200.55,319.864 193,319.5C 185.267,319.784 177.767,320.951 170.5,323C 143.425,301.025 125.258,273.192 116,239.5C 113.181,235.507 109.347,233.84 104.5,234.5 Z"/></g>
<g><path style="opacity:1" fill="#030200" d="M 263.5,84.5 C 274.624,85.3743 278.957,91.3743 276.5,102.5C 289.112,103.758 300.278,108.425 310,116.5C 314.369,125.232 311.869,130.898 302.5,133.5C 300.701,133.423 299.034,132.923 297.5,132C 291.483,126.658 284.483,123.492 276.5,122.5C 276.5,143.833 276.5,165.167 276.5,186.5C 317.212,196.931 331.712,222.264 320,262.5C 311.539,281.638 297.039,292.971 276.5,296.5C 277.128,302.762 276.295,308.762 274,314.5C 268.359,318.788 263.025,318.455 258,313.5C 256.661,308.264 256.161,302.93 256.5,297.5C 241.136,297.323 227.136,292.823 214.5,284C 209.167,278.333 209.167,272.667 214.5,267C 218.136,265.101 221.803,265.101 225.5,267C 234.66,273.998 244.993,277.498 256.5,277.5C 256.833,251.158 256.5,224.825 255.5,198.5C 243.083,193.879 232.25,186.879 223,177.5C 210.771,157.475 211.771,138.142 226,119.5C 234.241,110.409 244.408,105.076 256.5,103.5C 254.655,95.3946 256.988,89.0613 263.5,84.5 Z"/></g>
<g><path style="opacity:1" fill="#f9bd33" d="M 253.5,123.5 C 254.5,123.5 255.5,123.5 256.5,123.5C 256.833,141.179 256.5,158.846 255.5,176.5C 235.392,168.671 229.892,155.004 239,135.5C 242.811,130.189 247.644,126.189 253.5,123.5 Z"/></g>
<g><path style="opacity:0.939" fill="#050300" d="M 101.5,191.5 C 103.308,191.491 104.975,191.991 106.5,193C 114.249,201.661 112.582,207.827 101.5,211.5C 94.9428,211.781 91.2761,208.614 90.5,202C 91.1409,195.19 94.8075,191.69 101.5,191.5 Z"/></g>
<g><path style="opacity:1" fill="#fcbf34" d="M 276.5,207.5 C 301.218,214.266 309.718,229.932 302,254.5C 297.147,265.519 288.98,272.853 277.5,276.5C 276.5,253.51 276.167,230.51 276.5,207.5 Z"/></g>
<g><path style="opacity:1" fill="#fdd8d3" d="M 185.5,340.5 C 194.874,340.269 204.208,340.769 213.5,342C 235.5,349.333 257.5,356.667 279.5,364C 294.562,369.286 298.729,379.119 292,393.5C 285.831,400.335 278.331,402.501 269.5,400C 256.167,396 242.833,392 229.5,388C 221.89,386.469 217.224,389.469 215.5,397C 216.036,400.072 217.37,402.739 219.5,405C 238.458,411.907 257.791,417.573 277.5,422C 292.697,423.894 307.363,421.894 321.5,416C 340.754,408.137 360.087,400.471 379.5,393C 394.712,392.879 401.546,400.379 400,415.5C 398.231,419.266 395.731,422.433 392.5,425C 365.5,436 338.5,447 311.5,458C 299.833,461.333 288.167,461.333 276.5,458C 251.819,450.99 227.153,443.99 202.5,437C 194.542,435.61 186.542,435.277 178.5,436C 127.184,453.05 75.8512,470.216 24.5,487.5C 23.5002,460.175 23.1669,432.841 23.5,405.5C 57.3718,397.115 91.0385,387.949 124.5,378C 129.167,375.333 133.833,372.667 138.5,370C 146.877,362.621 155.544,355.621 164.5,349C 171.347,345.448 178.347,342.615 185.5,340.5 Z"/></g>
</svg>
