<?xml version="1.0" encoding="UTF-8"?>
<!DOCTYPE svg PUBLIC "-//W3C//DTD SVG 1.1//EN" "http://www.w3.org/Graphics/SVG/1.1/DTD/svg11.dtd">
<svg xmlns="http://www.w3.org/2000/svg" version="1.1" width="512px" height="512px" style="shape-rendering:geometricPrecision; text-rendering:geometricPrecision; image-rendering:optimizeQuality; fill-rule:evenodd; clip-rule:evenodd" xmlns:xlink="http://www.w3.org/1999/xlink">
<g><path style="opacity:0.997" fill="#7584f1" d="M 233.5,-0.5 C 248.167,-0.5 262.833,-0.5 277.5,-0.5C 377.81,11.9875 449.31,63.9875 492,155.5C 502.142,181.067 508.642,207.401 511.5,234.5C 511.5,240.167 511.5,245.833 511.5,251.5C 491.035,231.535 470.701,211.368 450.5,191C 449.906,190.536 449.239,190.369 448.5,190.5C 440.759,181.254 432.426,172.421 423.5,164C 422.423,163.53 421.423,163.697 420.5,164.5C 402.167,145.5 383.5,126.833 364.5,108.5C 350.833,108.5 337.167,108.5 323.5,108.5C 310.167,108.5 296.833,108.5 283.5,108.5C 283.5,120.5 283.5,132.5 283.5,144.5C 287.13,148.631 290.963,152.631 295,156.5C 295.499,152.514 295.666,148.514 295.5,144.5C 295.833,144.5 296.167,144.5 296.5,144.5C 296.5,150.5 296.5,156.5 296.5,162.5C 267.254,155.837 237.588,152.837 207.5,153.5C 192.452,137.785 177.119,122.452 161.5,107.5C 153.428,96.5127 144.594,95.8461 135,105.5C 130.629,115.891 133.462,123.557 143.5,128.5C 142.761,128.369 142.094,128.536 141.5,129C 149.833,137.333 158.167,145.667 166.5,154C 169.482,154.498 172.482,154.665 175.5,154.5C 152.257,155.83 128.924,157.83 105.5,160.5C 113.062,181.004 121.895,201.004 132,220.5C 132.594,223.978 131.094,225.978 127.5,226.5C 119.166,217.153 110.499,208.819 101.5,201.5C 94.0124,189.851 84.0124,187.351 71.5,194C 61.6459,205.524 62.6459,216.024 74.5,225.5C 81.1746,233.174 88.5079,240.174 96.5,246.5C 79.5474,257.988 62.8807,269.988 46.5,282.5C 48.5441,284.219 50.5441,285.886 52.5,287.5C 52.0618,287.435 51.7284,287.601 51.5,288C 126.035,362.368 200.368,436.868 274.5,511.5C 260.833,511.5 247.167,511.5 233.5,511.5C 133.19,499.013 61.6905,447.013 19,355.5C 8.86452,330.623 2.36452,304.957 -0.5,278.5C -0.5,263.167 -0.5,247.833 -0.5,232.5C 9.30698,148.242 49.6403,83.0754 120.5,37C 155.421,15.9708 193.087,3.47075 233.5,-0.5 Z"/></g>
<g><path style="opacity:1" fill="#fd6c54" d="M 161.5,107.5 C 164.116,121.884 158.116,128.884 143.5,128.5C 133.462,123.557 130.629,115.891 135,105.5C 144.594,95.8461 153.428,96.5127 161.5,107.5 Z"/></g>
<g><path style="opacity:1" fill="#4353cd" d="M 161.5,107.5 C 177.119,122.452 192.452,137.785 207.5,153.5C 196.825,153.623 186.159,153.957 175.5,154.5C 172.482,154.665 169.482,154.498 166.5,154C 158.167,145.667 149.833,137.333 141.5,129C 142.094,128.536 142.761,128.369 143.5,128.5C 158.116,128.884 164.116,121.884 161.5,107.5 Z"/></g>
<g><path style="opacity:1" fill="#fece00" d="M 323.5,108.5 C 323.5,120.5 323.5,132.5 323.5,144.5C 314.5,144.5 305.5,144.5 296.5,144.5C 296.167,144.5 295.833,144.5 295.5,144.5C 291.5,144.5 287.5,144.5 283.5,144.5C 283.5,132.5 283.5,120.5 283.5,108.5C 296.833,108.5 310.167,108.5 323.5,108.5 Z"/></g>
<g><path style="opacity:1" fill="#fcb912" d="M 323.5,108.5 C 337.167,108.5 350.833,108.5 364.5,108.5C 364.5,120.5 364.5,132.5 364.5,144.5C 360.167,144.5 355.833,144.5 351.5,144.5C 342.167,144.5 332.833,144.5 323.5,144.5C 323.5,132.5 323.5,120.5 323.5,108.5 Z"/></g>
<g><path style="opacity:1" fill="#4353cd" d="M 364.5,108.5 C 383.5,126.833 402.167,145.5 420.5,164.5C 412.833,172.5 405.167,180.5 397.5,188.5C 383.775,177.972 368.442,170.639 351.5,166.5C 351.5,159.167 351.5,151.833 351.5,144.5C 355.833,144.5 360.167,144.5 364.5,144.5C 364.5,132.5 364.5,120.5 364.5,108.5 Z"/></g>
<g><path style="opacity:1" fill="#fda202" d="M 323.5,144.5 C 332.833,144.5 342.167,144.5 351.5,144.5C 351.5,151.833 351.5,159.167 351.5,166.5C 342.659,164.548 333.659,163.381 324.5,163C 323.524,156.924 323.19,150.758 323.5,144.5 Z"/></g>
<g><path style="opacity:1" fill="#4555cd" d="M 283.5,144.5 C 287.5,144.5 291.5,144.5 295.5,144.5C 295.666,148.514 295.499,152.514 295,156.5C 290.963,152.631 287.13,148.631 283.5,144.5 Z"/></g>
<g><path style="opacity:1" fill="#fe6b52" d="M 207.5,153.5 C 237.588,152.837 267.254,155.837 296.5,162.5C 296.5,163.833 296.5,165.167 296.5,166.5C 279.313,170.215 263.98,177.548 250.5,188.5C 242.52,179.687 234.02,171.353 225,163.5C 217.674,169.992 210.508,176.659 203.5,183.5C 186.111,184.171 168.778,185.505 151.5,187.5C 158.462,204.93 166.129,222.096 174.5,239C 151.293,251.763 129.293,266.263 108.5,282.5C 133.794,303.324 161.794,319.824 192.5,332C 199.167,332.667 205.833,332.667 212.5,332C 214.058,331.79 215.391,331.29 216.5,330.5C 224.084,346.105 234.417,359.772 247.5,371.5C 231.686,377.272 215.686,377.772 199.5,373C 170.493,362.497 143.16,348.83 117.5,332C 95.4037,317.727 73.737,302.894 52.5,287.5C 50.5441,285.886 48.5441,284.219 46.5,282.5C 62.8807,269.988 79.5474,257.988 96.5,246.5C 106.856,239.8 117.189,233.133 127.5,226.5C 131.094,225.978 132.594,223.978 132,220.5C 121.895,201.004 113.062,181.004 105.5,160.5C 128.924,157.83 152.257,155.83 175.5,154.5C 186.159,153.957 196.825,153.623 207.5,153.5 Z"/></g>
<g><path style="opacity:1" fill="#fdb813" d="M 250.5,188.5 C 240.408,196.923 231.742,206.59 224.5,217.5C 216.592,208.088 208.092,199.088 199,190.5C 198.333,189.833 198.333,189.167 199,188.5C 200.707,186.963 202.207,185.296 203.5,183.5C 210.508,176.659 217.674,169.992 225,163.5C 234.02,171.353 242.52,179.687 250.5,188.5 Z"/></g>
<g><path style="opacity:1" fill="#fecd04" d="M 316.5,186.5 C 269.854,192.642 241.021,218.642 230,264.5C 225.06,311.797 243.56,346.297 285.5,368C 295.37,372.423 305.703,374.923 316.5,375.5C 318.607,376.468 320.941,376.802 323.5,376.5C 323.5,383.833 323.5,391.167 323.5,398.5C 294.889,398.519 269.556,389.519 247.5,371.5C 234.417,359.772 224.084,346.105 216.5,330.5C 204.177,299.802 203.344,268.802 214,237.5C 216.733,230.364 220.233,223.698 224.5,217.5C 231.742,206.59 240.408,196.923 250.5,188.5C 263.98,177.548 279.313,170.215 296.5,166.5C 305.317,164.045 314.317,163.045 323.5,163.5C 323.5,170.833 323.5,178.167 323.5,185.5C 320.941,185.198 318.607,185.532 316.5,186.5 Z"/></g>
<g><path style="opacity:1" fill="#fcb917" d="M 296.5,144.5 C 305.5,144.5 314.5,144.5 323.5,144.5C 323.19,150.758 323.524,156.924 324.5,163C 333.659,163.381 342.659,164.548 351.5,166.5C 368.442,170.639 383.775,177.972 397.5,188.5C 406.908,196.572 415.241,205.572 422.5,215.5C 445.795,254.746 447.629,295.079 428,336.5C 404.814,376.52 369.98,397.186 323.5,398.5C 323.5,391.167 323.5,383.833 323.5,376.5C 320.941,376.802 318.607,376.468 316.5,375.5C 318.833,375.5 321.167,375.5 323.5,375.5C 366.549,373.739 396.382,353.072 413,313.5C 426.824,267.029 414.324,229.529 375.5,201C 359.561,191.187 342.227,186.354 323.5,186.5C 321.167,186.5 318.833,186.5 316.5,186.5C 318.607,185.532 320.941,185.198 323.5,185.5C 323.5,178.167 323.5,170.833 323.5,163.5C 314.317,163.045 305.317,164.045 296.5,166.5C 296.5,165.167 296.5,163.833 296.5,162.5C 296.5,156.5 296.5,150.5 296.5,144.5 Z"/></g>
<g><path style="opacity:1" fill="#fea200" d="M 448.5,190.5 C 439.833,198.833 431.167,207.167 422.5,215.5C 415.241,205.572 406.908,196.572 397.5,188.5C 405.167,180.5 412.833,172.5 420.5,164.5C 421.423,163.697 422.423,163.53 423.5,164C 432.426,172.421 440.759,181.254 448.5,190.5 Z"/></g>
<g><path style="opacity:1" fill="#ff432e" d="M 203.5,183.5 C 202.207,185.296 200.707,186.963 199,188.5C 198.333,189.167 198.333,189.833 199,190.5C 208.092,199.088 216.592,208.088 224.5,217.5C 220.233,223.698 216.733,230.364 214,237.5C 203.344,268.802 204.177,299.802 216.5,330.5C 215.391,331.29 214.058,331.79 212.5,332C 205.833,332.667 199.167,332.667 192.5,332C 161.794,319.824 133.794,303.324 108.5,282.5C 129.293,266.263 151.293,251.763 174.5,239C 166.129,222.096 158.462,204.93 151.5,187.5C 168.778,185.505 186.111,184.171 203.5,183.5 Z"/></g>
<g><path style="opacity:1" fill="#fffefd" d="M 316.5,186.5 C 318.833,186.5 321.167,186.5 323.5,186.5C 323.5,189.167 323.5,191.833 323.5,194.5C 320.167,194.5 316.833,194.5 313.5,194.5C 313.5,201.5 313.5,208.5 313.5,215.5C 316.833,215.5 320.167,215.5 323.5,215.5C 323.5,231.167 323.5,246.833 323.5,262.5C 323.5,262.833 323.5,263.167 323.5,263.5C 316.188,270.146 309.188,277.146 302.5,284.5C 307.985,290.485 313.652,296.319 319.5,302C 321.066,302.3 322.399,301.8 323.5,300.5C 323.5,315.833 323.5,331.167 323.5,346.5C 320.167,346.5 316.833,346.5 313.5,346.5C 313.5,353.5 313.5,360.5 313.5,367.5C 316.833,367.5 320.167,367.5 323.5,367.5C 323.5,370.167 323.5,372.833 323.5,375.5C 321.167,375.5 318.833,375.5 316.5,375.5C 305.703,374.923 295.37,372.423 285.5,368C 243.56,346.297 225.06,311.797 230,264.5C 241.021,218.642 269.854,192.642 316.5,186.5 Z"/></g>
<g><path style="opacity:1" fill="#e9ecf3" d="M 323.5,186.5 C 342.227,186.354 359.561,191.187 375.5,201C 414.324,229.529 426.824,267.029 413,313.5C 396.382,353.072 366.549,373.739 323.5,375.5C 323.5,372.833 323.5,370.167 323.5,367.5C 327.042,367.813 330.375,367.479 333.5,366.5C 333.5,359.833 333.5,353.167 333.5,346.5C 330.167,346.5 326.833,346.5 323.5,346.5C 323.5,331.167 323.5,315.833 323.5,300.5C 323.833,299.833 324.167,299.167 324.5,298.5C 339.965,283.535 355.299,268.368 370.5,253C 364.333,246.833 358.167,240.667 352,234.5C 342.632,244.036 333.132,253.369 323.5,262.5C 323.5,246.833 323.5,231.167 323.5,215.5C 326.833,215.5 330.167,215.5 333.5,215.5C 333.5,208.833 333.5,202.167 333.5,195.5C 330.375,194.521 327.042,194.187 323.5,194.5C 323.5,191.833 323.5,189.167 323.5,186.5 Z"/></g>
<g><path style="opacity:1" fill="#fd6c53" d="M 101.5,201.5 C 103.784,222.192 94.7842,230.192 74.5,225.5C 62.6459,216.024 61.6459,205.524 71.5,194C 84.0124,187.351 94.0124,189.851 101.5,201.5 Z"/></g>
<g><path style="opacity:1" fill="#4253cd" d="M 448.5,190.5 C 449.239,190.369 449.906,190.536 450.5,191C 470.701,211.368 491.035,231.535 511.5,251.5C 511.5,260.5 511.5,269.5 511.5,278.5C 500.611,368.146 456.278,435.646 378.5,481C 347.032,497.694 313.698,507.861 278.5,511.5C 277.167,511.5 275.833,511.5 274.5,511.5C 200.368,436.868 126.035,362.368 51.5,288C 51.7284,287.601 52.0618,287.435 52.5,287.5C 73.737,302.894 95.4037,317.727 117.5,332C 143.16,348.83 170.493,362.497 199.5,373C 215.686,377.772 231.686,377.272 247.5,371.5C 269.556,389.519 294.889,398.519 323.5,398.5C 369.98,397.186 404.814,376.52 428,336.5C 447.629,295.079 445.795,254.746 422.5,215.5C 431.167,207.167 439.833,198.833 448.5,190.5 Z"/></g>
<g><path style="opacity:1" fill="#fdbd27" d="M 323.5,194.5 C 327.042,194.187 330.375,194.521 333.5,195.5C 330.167,195.5 326.833,195.5 323.5,195.5C 323.5,202.167 323.5,208.833 323.5,215.5C 320.167,215.5 316.833,215.5 313.5,215.5C 313.5,208.5 313.5,201.5 313.5,194.5C 316.833,194.5 320.167,194.5 323.5,194.5 Z"/></g>
<g><path style="opacity:1" fill="#fe9603" d="M 333.5,195.5 C 333.5,202.167 333.5,208.833 333.5,215.5C 330.167,215.5 326.833,215.5 323.5,215.5C 323.5,208.833 323.5,202.167 323.5,195.5C 326.833,195.5 330.167,195.5 333.5,195.5 Z"/></g>
<g><path style="opacity:1" fill="#4553cc" d="M 127.5,226.5 C 117.189,233.133 106.856,239.8 96.5,246.5C 88.5079,240.174 81.1746,233.174 74.5,225.5C 94.7842,230.192 103.784,222.192 101.5,201.5C 110.499,208.819 119.166,217.153 127.5,226.5 Z"/></g>
<g><path style="opacity:1" fill="#fdba15" d="M 269.5,213.5 C 274.479,217.812 279.146,222.479 283.5,227.5C 279.182,232.319 274.682,236.985 270,241.5C 265.318,236.985 260.818,232.319 256.5,227.5C 260.855,222.813 265.188,218.146 269.5,213.5 Z"/></g>
<g><path style="opacity:1" fill="#fe9608" d="M 376.5,213.5 C 381.908,217.4 386.908,221.9 391.5,227C 386.667,231.833 381.833,236.667 377,241.5C 372.318,236.985 367.818,232.319 363.5,227.5C 367.855,222.813 372.188,218.146 376.5,213.5 Z"/></g>
<g><path style="opacity:1" fill="#353b42" d="M 324.5,298.5 C 323.505,287.012 323.172,275.345 323.5,263.5C 323.5,263.167 323.5,262.833 323.5,262.5C 333.132,253.369 342.632,244.036 352,234.5C 358.167,240.667 364.333,246.833 370.5,253C 355.299,268.368 339.965,283.535 324.5,298.5 Z"/></g>
<g><path style="opacity:1" fill="#585d69" d="M 323.5,263.5 C 323.172,275.345 323.505,287.012 324.5,298.5C 324.167,299.167 323.833,299.833 323.5,300.5C 322.399,301.8 321.066,302.3 319.5,302C 313.652,296.319 307.985,290.485 302.5,284.5C 309.188,277.146 316.188,270.146 323.5,263.5 Z"/></g>
<g><path style="opacity:1" fill="#fed779" d="M 237.5,270.5 C 244.5,270.5 251.5,270.5 258.5,270.5C 258.5,277.5 258.5,284.5 258.5,291.5C 251.5,291.5 244.5,291.5 237.5,291.5C 237.5,284.5 237.5,277.5 237.5,270.5 Z"/></g>
<g><path style="opacity:1" fill="#fcba11" d="M 238.5,271.5 C 244.833,271.5 251.167,271.5 257.5,271.5C 257.5,277.833 257.5,284.167 257.5,290.5C 251.167,290.5 244.833,290.5 238.5,290.5C 238.5,284.167 238.5,277.833 238.5,271.5 Z"/></g>
<g><path style="opacity:1" fill="#fe9500" d="M 389.5,271.5 C 396.167,271.5 402.833,271.5 409.5,271.5C 409.5,277.833 409.5,284.167 409.5,290.5C 402.833,290.5 396.167,290.5 389.5,290.5C 389.5,284.167 389.5,277.833 389.5,271.5 Z"/></g>
<g><path style="opacity:1" fill="#f1cc9a" d="M 389.5,271.5 C 396.313,270.509 403.313,270.175 410.5,270.5C 410.824,277.354 410.491,284.021 409.5,290.5C 409.5,284.167 409.5,277.833 409.5,271.5C 402.833,271.5 396.167,271.5 389.5,271.5 Z"/></g>
<g><path style="opacity:1" fill="#fdba14" d="M 269.5,320.5 C 274.479,324.812 279.146,329.479 283.5,334.5C 279.182,339.319 274.682,343.985 270,348.5C 265.318,343.985 260.818,339.319 256.5,334.5C 260.855,329.813 265.188,325.146 269.5,320.5 Z"/></g>
<g><path style="opacity:1" fill="#fe9709" d="M 376.5,320.5 C 381.48,325.145 386.48,329.812 391.5,334.5C 387.167,339.5 382.5,344.167 377.5,348.5C 372.5,344.167 367.833,339.5 363.5,334.5C 367.855,329.813 372.188,325.146 376.5,320.5 Z"/></g>
<g><path style="opacity:1" fill="#fdbd28" d="M 323.5,346.5 C 323.5,353.167 323.5,359.833 323.5,366.5C 326.833,366.5 330.167,366.5 333.5,366.5C 330.375,367.479 327.042,367.813 323.5,367.5C 320.167,367.5 316.833,367.5 313.5,367.5C 313.5,360.5 313.5,353.5 313.5,346.5C 316.833,346.5 320.167,346.5 323.5,346.5 Z"/></g>
<g><path style="opacity:1" fill="#fe9502" d="M 323.5,346.5 C 326.833,346.5 330.167,346.5 333.5,346.5C 333.5,353.167 333.5,359.833 333.5,366.5C 330.167,366.5 326.833,366.5 323.5,366.5C 323.5,359.833 323.5,353.167 323.5,346.5 Z"/></g>
</svg>
