<?xml version="1.0" encoding="UTF-8"?>
<!DOCTYPE svg PUBLIC "-//W3C//DTD SVG 1.1//EN" "http://www.w3.org/Graphics/SVG/1.1/DTD/svg11.dtd">
<svg xmlns="http://www.w3.org/2000/svg" version="1.1" width="512px" height="512px" style="shape-rendering:geometricPrecision; text-rendering:geometricPrecision; image-rendering:optimizeQuality; fill-rule:evenodd; clip-rule:evenodd" xmlns:xlink="http://www.w3.org/1999/xlink">
<g><path style="opacity:0.989" fill="#fea91b" d="M 321.5,47.5 C 320.761,47.369 320.094,47.5357 319.5,48C 321.041,49.5793 322.208,51.4127 323,53.5C 323.5,63.5097 323.333,73.5097 322.5,83.5C 311.416,78.6938 300.416,73.6938 289.5,68.5C 279.86,64.014 270.193,59.514 260.5,55C 257.167,54.3333 253.833,54.3333 250.5,55C 232.5,63.3333 214.5,71.6667 196.5,80C 191.256,82.2029 186.422,85.0362 182,88.5C 179.526,94.5826 178.859,100.916 180,107.5C 182.042,136.628 191.042,163.295 207,187.5C 210.336,192.002 214.169,196.002 218.5,199.5C 227.933,209.551 239.266,216.551 252.5,220.5C 246.262,223.619 239.929,226.786 233.5,230C 226.601,232.81 219.601,234.644 212.5,235.5C 182.67,210.544 163.503,178.877 155,140.5C 149.622,119.144 146.955,97.4776 147,75.5C 148.623,69.5431 152.123,65.0431 157.5,62C 187.5,48 217.5,34 247.5,20C 252.833,18 258.167,18 263.5,20C 283.045,28.9416 302.379,38.1083 321.5,47.5 Z"/></g>
<g><path style="opacity:1" fill="#f7921a" d="M 321.5,47.5 C 328.024,50.2635 334.357,53.2635 340.5,56.5C 339.761,56.369 339.094,56.5357 338.5,57C 340.123,59.0795 341.623,61.2462 343,63.5C 343.425,98.4354 337.091,132.102 324,164.5C 311.346,193.483 291.846,216.65 265.5,234C 257.949,238.443 249.949,241.777 241.5,244C 235.07,244.673 228.737,244.173 222.5,242.5C 218.779,240.646 215.446,238.313 212.5,235.5C 219.601,234.644 226.601,232.81 233.5,230C 239.929,226.786 246.262,223.619 252.5,220.5C 263.93,219.121 274.263,214.954 283.5,208C 309.171,186.508 324.337,159.008 329,125.5C 330.249,116.511 331.415,107.511 332.5,98.5C 332.338,91.3454 329.004,86.3454 322.5,83.5C 323.333,73.5097 323.5,63.5097 323,53.5C 322.208,51.4127 321.041,49.5793 319.5,48C 320.094,47.5357 320.761,47.369 321.5,47.5 Z"/></g>
<g><path style="opacity:1" fill="#f0f1f1" d="M 289.5,68.5 C 290.981,72.1465 291.648,75.9799 291.5,80C 290.791,87.8351 290.125,95.6684 289.5,103.5C 286.925,104.568 284.758,106.235 283,108.5C 272.385,123.45 261.385,138.116 250,152.5C 242.463,145.294 234.629,138.46 226.5,132C 216.994,130.181 212.494,134.015 213,143.5C 213.667,144.833 214.333,146.167 215,147.5C 225.763,157.773 236.929,167.439 248.5,176.5C 250.292,177.309 252.292,177.809 254.5,178C 244.487,188.506 232.487,195.673 218.5,199.5C 214.169,196.002 210.336,192.002 207,187.5C 191.042,163.295 182.042,136.628 180,107.5C 178.859,100.916 179.526,94.5826 182,88.5C 186.422,85.0362 191.256,82.2029 196.5,80C 214.5,71.6667 232.5,63.3333 250.5,55C 253.833,54.3333 257.167,54.3333 260.5,55C 270.193,59.514 279.86,64.014 289.5,68.5 Z"/></g>
<g><path style="opacity:1" fill="#ef7916" d="M 340.5,56.5 C 348.478,58.5714 355.311,62.5714 361,68.5C 363.81,72.9308 364.976,77.7641 364.5,83C 363.068,122.949 352.901,160.449 334,195.5C 318.769,221.068 297.602,239.901 270.5,252C 264.106,254.933 257.44,255.933 250.5,255C 240.415,252.26 231.082,248.094 222.5,242.5C 228.737,244.173 235.07,244.673 241.5,244C 249.949,241.777 257.949,238.443 265.5,234C 291.846,216.65 311.346,193.483 324,164.5C 337.091,132.102 343.425,98.4354 343,63.5C 341.623,61.2462 340.123,59.0795 338.5,57C 339.094,56.5357 339.761,56.369 340.5,56.5 Z"/></g>
<g><path style="opacity:1" fill="#e5e6e6" d="M 289.5,68.5 C 300.416,73.6938 311.416,78.6938 322.5,83.5C 329.004,86.3454 332.338,91.3454 332.5,98.5C 331.415,107.511 330.249,116.511 329,125.5C 324.337,159.008 309.171,186.508 283.5,208C 274.263,214.954 263.93,219.121 252.5,220.5C 239.266,216.551 227.933,209.551 218.5,199.5C 232.487,195.673 244.487,188.506 254.5,178C 252.292,177.809 250.292,177.309 248.5,176.5C 253.126,177.3 256.96,175.966 260,172.5C 273.09,154.654 286.424,136.987 300,119.5C 304.317,109.146 300.817,103.813 289.5,103.5C 290.125,95.6684 290.791,87.8351 291.5,80C 291.648,75.9799 290.981,72.1465 289.5,68.5 Z"/></g>
<g><path style="opacity:1" fill="#ffc61c" d="M 157.5,85.5 C 163.263,85.7827 164.93,88.616 162.5,94C 155.416,94.475 153.749,91.6417 157.5,85.5 Z"/></g>
<g><path style="opacity:1" fill="#ffc71c" d="M 158.5,103.5 C 161.079,103.083 163.246,103.75 165,105.5C 168.496,128.149 174.496,150.149 183,171.5C 190.783,187.406 200.783,201.739 213,214.5C 213.833,219 212,220.833 207.5,220C 184.715,196.938 169.881,169.438 163,137.5C 161.075,127.692 159.241,117.858 157.5,108C 157.605,106.408 157.939,104.908 158.5,103.5 Z"/></g>
<g><path style="opacity:1" fill="#424244" d="M 289.5,103.5 C 300.817,103.813 304.317,109.146 300,119.5C 286.424,136.987 273.09,154.654 260,172.5C 256.96,175.966 253.126,177.3 248.5,176.5C 236.929,167.439 225.763,157.773 215,147.5C 214.333,146.167 213.667,144.833 213,143.5C 212.494,134.015 216.994,130.181 226.5,132C 234.629,138.46 242.463,145.294 250,152.5C 261.385,138.116 272.385,123.45 283,108.5C 284.758,106.235 286.925,104.568 289.5,103.5 Z"/></g>
<g><path style="opacity:0.994" fill="#367ce2" d="M 146.5,231.5 C 127.476,265.715 107.809,299.549 87.5,333C 84.0684,335.072 80.4017,335.738 76.5,335C 62.273,327.059 48.273,318.892 34.5,310.5C 54.6791,274.146 75.5124,238.146 97,202.5C 113.445,212.304 129.945,221.971 146.5,231.5 Z"/></g>
<g><path style="opacity:0.993" fill="#367ce1" d="M 476.5,310.5 C 462.727,318.892 448.727,327.059 434.5,335C 430.467,336.04 426.801,335.374 423.5,333C 403.191,299.549 383.524,265.715 364.5,231.5C 381.055,221.971 397.555,212.304 414,202.5C 435.488,238.146 456.321,274.146 476.5,310.5 Z"/></g>
<g><path style="opacity:1" fill="#2366d3" d="M 146.5,231.5 C 154.799,236.119 157.633,243.119 155,252.5C 154.209,253.745 153.709,255.078 153.5,256.5C 133.344,289.468 113.677,322.802 94.5,356.5C 92.3084,359.55 90.6417,362.883 89.5,366.5C 84.7737,374.474 77.7737,377.307 68.5,375C 50.9181,364.96 33.4181,354.793 16,344.5C 15.4795,342.711 15.8129,341.044 17,339.5C 22.8591,329.77 28.6924,320.103 34.5,310.5C 48.273,318.892 62.273,327.059 76.5,335C 80.4017,335.738 84.0684,335.072 87.5,333C 107.809,299.549 127.476,265.715 146.5,231.5 Z"/></g>
<g><path style="opacity:1" fill="#2366d3" d="M 364.5,231.5 C 383.524,265.715 403.191,299.549 423.5,333C 426.801,335.374 430.467,336.04 434.5,335C 448.727,327.059 462.727,318.892 476.5,310.5C 482.308,320.103 488.141,329.77 494,339.5C 495.187,341.044 495.52,342.711 495,344.5C 477.582,354.793 460.082,364.96 442.5,375C 433.226,377.307 426.226,374.474 421.5,366.5C 420,362.827 418,359.494 415.5,356.5C 397.173,322.504 377.84,289.171 357.5,256.5C 353.855,249.869 354.022,243.202 358,236.5C 359.758,234.235 361.925,232.568 364.5,231.5 Z"/></g>
<g><path style="opacity:0.997" fill="#fbc3ad" d="M 153.5,256.5 C 170.551,265.776 187.384,275.442 204,285.5C 207,280.5 210,275.5 213,270.5C 219.959,263.558 228.126,261.724 237.5,265C 243.647,268.328 249.647,271.828 255.5,275.5C 245.334,282.084 235,288.418 224.5,294.5C 215.882,299.137 207.549,304.137 199.5,309.5C 195.568,310.468 192.234,312.468 189.5,315.5C 198.608,333.386 212.941,339.886 232.5,335C 242.064,329.968 251.564,324.801 261,319.5C 297.756,340.126 334.256,361.126 370.5,382.5C 374.45,385.308 378.783,387.308 383.5,388.5C 391.065,392.963 394.398,399.63 393.5,408.5C 387.864,411.308 381.864,412.141 375.5,411C 351.562,396.78 327.395,382.947 303,369.5C 300.72,372.55 298.553,375.717 296.5,379C 321.843,394.201 347.51,408.701 373.5,422.5C 377.447,424.945 380.947,427.945 384,431.5C 385.989,435.253 386.822,439.253 386.5,443.5C 384.22,444.64 381.886,445.807 379.5,447C 376.167,447.667 372.833,447.667 369.5,447C 341.732,431.033 313.899,415.2 286,399.5C 283.523,401.778 281.523,404.445 280,407.5C 279.383,408.449 279.549,409.282 280.5,410C 304.523,423.34 328.189,437.174 351.5,451.5C 352.32,453.812 353.153,456.146 354,458.5C 354.796,461.039 354.629,463.372 353.5,465.5C 348.202,468.274 342.535,469.107 336.5,468C 314.065,455.033 291.565,442.2 269,429.5C 265.945,431.742 263.778,434.742 262.5,438.5C 262.709,439.086 263.043,439.586 263.5,440C 277.241,447.263 290.574,455.096 303.5,463.5C 303.5,464.167 303.833,464.5 304.5,464.5C 304.5,465.167 304.833,465.5 305.5,465.5C 307.191,469.561 307.524,473.561 306.5,477.5C 301.759,481.088 296.426,482.255 290.5,481C 282.005,476.587 273.672,471.92 265.5,467C 264.748,466.329 264.414,465.496 264.5,464.5C 264.665,460.818 264.499,457.152 264,453.5C 262.723,451.253 261.223,449.253 259.5,447.5C 253.202,442.205 246.202,441.205 238.5,444.5C 244.144,436.15 243.81,428.15 237.5,420.5C 231.174,415.333 224.174,414.333 216.5,417.5C 222.13,409.17 221.797,401.17 215.5,393.5C 209.202,388.205 202.202,387.205 194.5,390.5C 198.368,384.588 199.201,378.255 197,371.5C 195.951,369.382 194.451,367.716 192.5,366.5C 188.13,361.945 182.797,360.445 176.5,362C 164.654,368.757 152.654,375.257 140.5,381.5C 125.129,373.104 109.796,364.77 94.5,356.5C 113.677,322.802 133.344,289.468 153.5,256.5 Z"/></g>
<g><path style="opacity:0.997" fill="#f1ad97" d="M 357.5,256.5 C 377.84,289.171 397.173,322.504 415.5,356.5C 400.002,364.412 385.002,373.079 370.5,382.5C 334.256,361.126 297.756,340.126 261,319.5C 251.564,324.801 242.064,329.968 232.5,335C 212.941,339.886 198.608,333.386 189.5,315.5C 192.234,312.468 195.568,310.468 199.5,309.5C 202.418,315.96 207.418,318.794 214.5,318C 220.196,316.07 225.363,313.236 230,309.5C 230.413,303.663 228.58,298.663 224.5,294.5C 235,288.418 245.334,282.084 255.5,275.5C 261.353,271.828 267.353,268.328 273.5,265C 282.874,261.724 291.041,263.558 298,270.5C 301,275.5 304,280.5 307,285.5C 323.616,275.442 340.449,265.776 357.5,256.5 Z"/></g>
<g><path style="opacity:1" fill="#fed1bf" d="M 224.5,294.5 C 228.58,298.663 230.413,303.663 230,309.5C 225.363,313.236 220.196,316.07 214.5,318C 207.418,318.794 202.418,315.96 199.5,309.5C 207.549,304.137 215.882,299.137 224.5,294.5 Z"/></g>
<g><path style="opacity:0.995" fill="#f2ad97" d="M 94.5,356.5 C 109.796,364.77 125.129,373.104 140.5,381.5C 152.654,375.257 164.654,368.757 176.5,362C 182.797,360.445 188.13,361.945 192.5,366.5C 192.5,369.5 192.5,372.5 192.5,375.5C 187.434,365.431 180.434,363.931 171.5,371C 170.446,372.388 170.28,373.888 171,375.5C 173.433,379.367 175.6,383.367 177.5,387.5C 163.194,395.655 148.861,403.821 134.5,412C 129.337,412.817 124.337,412.317 119.5,410.5C 119.5,411.5 119.5,412.5 119.5,413.5C 115.217,403.18 117.884,395.014 127.5,389C 114.971,381.237 102.304,373.737 89.5,366.5C 90.6417,362.883 92.3084,359.55 94.5,356.5 Z"/></g>
<g><path style="opacity:1" fill="#e59177" d="M 415.5,356.5 C 418,359.494 420,362.827 421.5,366.5C 408.833,373.833 396.167,381.167 383.5,388.5C 378.783,387.308 374.45,385.308 370.5,382.5C 385.002,373.079 400.002,364.412 415.5,356.5 Z"/></g>
<g><path style="opacity:1" fill="#fed0be" d="M 192.5,375.5 C 193.876,383.952 190.376,388.952 182,390.5C 179.791,390.443 178.291,389.443 177.5,387.5C 175.6,383.367 173.433,379.367 171,375.5C 170.28,373.888 170.446,372.388 171.5,371C 180.434,363.931 187.434,365.431 192.5,375.5 Z"/></g>
<g><path style="opacity:1" fill="#e59177" d="M 192.5,366.5 C 194.451,367.716 195.951,369.382 197,371.5C 199.201,378.255 198.368,384.588 194.5,390.5C 175.915,401.958 156.915,412.625 137.5,422.5C 129.28,423.724 123.28,420.724 119.5,413.5C 119.5,412.5 119.5,411.5 119.5,410.5C 124.337,412.317 129.337,412.817 134.5,412C 148.861,403.821 163.194,395.655 177.5,387.5C 178.291,389.443 179.791,390.443 182,390.5C 190.376,388.952 193.876,383.952 192.5,375.5C 192.5,372.5 192.5,369.5 192.5,366.5 Z"/></g>
<g><path style="opacity:1" fill="#f2ad97" d="M 393.5,408.5 C 390.983,419.008 384.317,423.675 373.5,422.5C 347.51,408.701 321.843,394.201 296.5,379C 298.553,375.717 300.72,372.55 303,369.5C 327.395,382.947 351.562,396.78 375.5,411C 381.864,412.141 387.864,411.308 393.5,408.5 Z"/></g>
<g><path style="opacity:0.995" fill="#f1ac96" d="M 215.5,393.5 C 214.527,395.948 214.194,398.615 214.5,401.5C 208.998,392.36 201.998,391.194 193.5,398C 192.446,399.388 192.28,400.888 193,402.5C 195.446,406.394 197.612,410.394 199.5,414.5C 180.527,425.321 161.527,436.155 142.5,447C 137.311,447.985 132.311,447.485 127.5,445.5C 126.614,446.325 126.281,447.325 126.5,448.5C 123.272,441.17 124.272,434.337 129.5,428C 132.407,426.391 135.073,424.558 137.5,422.5C 156.915,412.625 175.915,401.958 194.5,390.5C 202.202,387.205 209.202,388.205 215.5,393.5 Z"/></g>
<g><path style="opacity:1" fill="#fed0be" d="M 214.5,401.5 C 216.305,410.208 212.805,415.542 204,417.5C 201.791,417.443 200.291,416.443 199.5,414.5C 197.612,410.394 195.446,406.394 193,402.5C 192.28,400.888 192.446,399.388 193.5,398C 201.998,391.194 208.998,392.36 214.5,401.5 Z"/></g>
<g><path style="opacity:1" fill="#e59177" d="M 215.5,393.5 C 221.797,401.17 222.13,409.17 216.5,417.5C 197.335,428.582 178.335,439.915 159.5,451.5C 154.294,455.351 148.461,457.685 142,458.5C 134.568,458.542 129.402,455.208 126.5,448.5C 126.281,447.325 126.614,446.325 127.5,445.5C 132.311,447.485 137.311,447.985 142.5,447C 161.527,436.155 180.527,425.321 199.5,414.5C 200.291,416.443 201.791,417.443 204,417.5C 212.805,415.542 216.305,410.208 214.5,401.5C 214.194,398.615 214.527,395.948 215.5,393.5 Z"/></g>
<g><path style="opacity:1" fill="#f2ad97" d="M 386.5,443.5 C 383.375,455.402 375.708,460.235 363.5,458C 359.313,456.075 355.313,453.908 351.5,451.5C 328.189,437.174 304.523,423.34 280.5,410C 279.549,409.282 279.383,408.449 280,407.5C 281.523,404.445 283.523,401.778 286,399.5C 313.899,415.2 341.732,431.033 369.5,447C 372.833,447.667 376.167,447.667 379.5,447C 381.886,445.807 384.22,444.64 386.5,443.5 Z"/></g>
<g><path style="opacity:0.996" fill="#f1ac96" d="M 237.5,420.5 C 236.527,422.948 236.194,425.615 236.5,428.5C 230.96,419.216 224.127,418.216 216,425.5C 215.333,427.167 215.333,428.833 216,430.5C 218.372,433.91 220.205,437.577 221.5,441.5C 206.313,450.505 190.98,459.339 175.5,468C 168.964,470.434 162.964,469.601 157.5,465.5C 156.848,464.551 156.514,463.385 156.5,462C 157,458.335 158,454.835 159.5,451.5C 178.335,439.915 197.335,428.582 216.5,417.5C 224.174,414.333 231.174,415.333 237.5,420.5 Z"/></g>
<g><path style="opacity:1" fill="#fed0be" d="M 236.5,428.5 C 238.649,437.055 235.316,442.388 226.5,444.5C 224.577,443.908 222.911,442.908 221.5,441.5C 220.205,437.577 218.372,433.91 216,430.5C 215.333,428.833 215.333,427.167 216,425.5C 224.127,418.216 230.96,419.216 236.5,428.5 Z"/></g>
<g><path style="opacity:1" fill="#e59177" d="M 237.5,420.5 C 243.81,428.15 244.144,436.15 238.5,444.5C 228,450.582 217.666,456.916 207.5,463.5C 206.833,463.5 206.5,463.833 206.5,464.5C 205.833,464.5 205.5,464.833 205.5,465.5C 197.568,469.134 189.901,473.3 182.5,478C 169.705,482.257 161.371,478.091 157.5,465.5C 162.964,469.601 168.964,470.434 175.5,468C 190.98,459.339 206.313,450.505 221.5,441.5C 222.911,442.908 224.577,443.908 226.5,444.5C 235.316,442.388 238.649,437.055 236.5,428.5C 236.194,425.615 236.527,422.948 237.5,420.5 Z"/></g>
<g><path style="opacity:1" fill="#f2ad97" d="M 353.5,465.5 C 349.629,478.091 341.295,482.257 328.5,478C 321.099,473.3 313.432,469.134 305.5,465.5C 304.833,465.5 304.5,465.167 304.5,464.5C 303.833,464.5 303.5,464.167 303.5,463.5C 290.574,455.096 277.241,447.263 263.5,440C 263.043,439.586 262.709,439.086 262.5,438.5C 263.778,434.742 265.945,431.742 269,429.5C 291.565,442.2 314.065,455.033 336.5,468C 342.535,469.107 348.202,468.274 353.5,465.5 Z"/></g>
<g><path style="opacity:0.994" fill="#f2ac96" d="M 259.5,447.5 C 258.532,449.607 258.198,451.941 258.5,454.5C 252.534,446.008 245.701,445.341 238,452.5C 237.333,454.167 237.333,455.833 238,457.5C 240.178,461.194 242.345,464.861 244.5,468.5C 236.68,472.911 228.68,477.078 220.5,481C 214.795,482.067 209.461,481.233 204.5,478.5C 203.39,474.125 203.723,469.791 205.5,465.5C 206.167,465.5 206.5,465.167 206.5,464.5C 207.167,464.5 207.5,464.167 207.5,463.5C 217.666,456.916 228,450.582 238.5,444.5C 246.202,441.205 253.202,442.205 259.5,447.5 Z"/></g>
<g><path style="opacity:1" fill="#fed0be" d="M 258.5,454.5 C 261.113,463.572 257.78,469.239 248.5,471.5C 246.583,471.246 245.249,470.246 244.5,468.5C 242.345,464.861 240.178,461.194 238,457.5C 237.333,455.833 237.333,454.167 238,452.5C 245.701,445.341 252.534,446.008 258.5,454.5 Z"/></g>
<g><path style="opacity:1" fill="#e59178" d="M 259.5,447.5 C 261.223,449.253 262.723,451.253 264,453.5C 264.499,457.152 264.665,460.818 264.5,464.5C 262.632,469.04 259.632,472.707 255.5,475.5C 248.528,479.655 241.528,483.822 234.5,488C 224.589,494.614 215.422,493.78 207,485.5C 205.589,483.35 204.755,481.016 204.5,478.5C 209.461,481.233 214.795,482.067 220.5,481C 228.68,477.078 236.68,472.911 244.5,468.5C 245.249,470.246 246.583,471.246 248.5,471.5C 257.78,469.239 261.113,463.572 258.5,454.5C 258.198,451.941 258.532,449.607 259.5,447.5 Z"/></g>
<g><path style="opacity:1" fill="#f2ae98" d="M 264.5,464.5 C 264.414,465.496 264.748,466.329 265.5,467C 273.672,471.92 282.005,476.587 290.5,481C 296.426,482.255 301.759,481.088 306.5,477.5C 304.966,487.028 299.299,492.028 289.5,492.5C 287.077,492.406 284.744,491.906 282.5,491C 273.354,486.005 264.354,480.839 255.5,475.5C 259.632,472.707 262.632,469.04 264.5,464.5 Z"/></g>
</svg>
